<svg xmlns="http://www.w3.org/2000/svg" viewBox="0 0 128 128" width="100%" height="100%" shape-rendering="crispEdges">
  <defs>
    <filter id="dropShadow" x="-50%" y="-50%" width="200%" height="200%">
      <feDropShadow dx="0" dy="2" stdDeviation="1.2" flood-color="#000000" flood-opacity="0.35"/>
    </filter>
  </defs>

  <g transform="translate(25 22) scale(6)" filter="url(#dropShadow)">
    <rect x="0" y="0" width="1" height="1" fill="#00BFFF"/><rect x="1" y="0" width="1" height="1" fill="#0EA7FF"/>
    <rect x="0" y="1" width="1" height="1" fill="#0E9CFF"/><rect x="1" y="1" width="1" height="1" fill="#1E90FF"/>
    <rect x="2" y="0" width="1" height="1" fill="#1E90FF"/><rect x="3" y="0" width="1" height="1" fill="#2A85F5"/>
    <rect x="2" y="1" width="1" height="1" fill="#2A7FF5"/><rect x="3" y="1" width="1" height="1" fill="#367AEB"/>
    <rect x="4" y="0" width="1" height="1" fill="#367AEB"/><rect x="5" y="0" width="1" height="1" fill="#4169E1"/>
    <rect x="4" y="1" width="1" height="1" fill="#3D73E6"/><rect x="5" y="1" width="1" height="1" fill="#4863DC"/>
    <rect x="6" y="0" width="1" height="1" fill="#4863DC"/><rect x="7" y="0" width="1" height="1" fill="#4F5DD7"/>
    <rect x="6" y="1" width="1" height="1" fill="#4F5DD7"/><rect x="7" y="1" width="1" height="1" fill="#5657D2"/>
    <rect x="8" y="0" width="1" height="1" fill="#5657D2"/><rect x="9" y="0" width="1" height="1" fill="#5D51CD"/>
    <rect x="8" y="1" width="1" height="1" fill="#5D51CD"/><rect x="9" y="1" width="1" height="1" fill="#6A5ACD"/>

    <rect x="0" y="2" width="1" height="1" fill="#1E90FF"/><rect x="1" y="2" width="1" height="1" fill="#2A85F5"/>
    <rect x="0" y="3" width="1" height="1" fill="#2A85F5"/><rect x="1" y="3" width="1" height="1" fill="#367AEB"/>
    <rect x="0" y="4" width="1" height="1" fill="#367AEB"/><rect x="1" y="4" width="1" height="1" fill="#4169E1"/>
    <rect x="0" y="5" width="1" height="1" fill="#4169E1"/><rect x="1" y="5" width="1" height="1" fill="#4F5DD7"/>
    <rect x="0" y="6" width="1" height="1" fill="#4F5DD7"/><rect x="1" y="6" width="1" height="1" fill="#5D51CD"/>
    <rect x="0" y="7" width="1" height="1" fill="#5D51CD"/><rect x="1" y="7" width="1" height="1" fill="#6A5ACD"/>
    <rect x="0" y="8" width="1" height="1" fill="#6A5ACD"/><rect x="1" y="8" width="1" height="1" fill="#724EC6"/>
    <rect x="0" y="9" width="1" height="1" fill="#724EC6"/><rect x="1" y="9" width="1" height="1" fill="#7B43BF"/>
    <rect x="0" y="10" width="1" height="1" fill="#7B43BF"/><rect x="1" y="10" width="1" height="1" fill="#8337B8"/>
    <rect x="0" y="11" width="1" height="1" fill="#8337B8"/><rect x="1" y="11" width="1" height="1" fill="#8A2BE2"/>

    <rect x="2" y="6" width="1" height="1" fill="#5D51CD"/><rect x="3" y="6" width="1" height="1" fill="#6454D0"/>
    <rect x="2" y="7" width="1" height="1" fill="#6454D0"/><rect x="3" y="7" width="1" height="1" fill="#6A5ACD"/>
    <rect x="4" y="6" width="1" height="1" fill="#6A5ACD"/><rect x="5" y="6" width="1" height="1" fill="#724EC6"/>
    <rect x="4" y="7" width="1" height="1" fill="#724EC6"/><rect x="5" y="7" width="1" height="1" fill="#7B43BF"/>
    <rect x="6" y="6" width="1" height="1" fill="#7B43BF"/><rect x="7" y="6" width="1" height="1" fill="#8337B8"/>
    <rect x="6" y="7" width="1" height="1" fill="#8337B8"/><rect x="7" y="7" width="1" height="1" fill="#8A2BE2"/>
    <rect x="8" y="6" width="1" height="1" fill="#8A2BE2"/><rect x="9" y="6" width="1" height="1" fill="#8F22DB"/>
    <rect x="8" y="7" width="1" height="1" fill="#8F22DB"/><rect x="9" y="7" width="1" height="1" fill="#9419D4"/>

    <rect x="0" y="12" width="1" height="1" fill="#8A2BE2"/><rect x="1" y="12" width="1" height="1" fill="#8F22DB"/>
    <rect x="0" y="13" width="1" height="1" fill="#8F22DB"/><rect x="1" y="13" width="1" height="1" fill="#9419D4"/>
    <rect x="2" y="12" width="1" height="1" fill="#9419D4"/><rect x="3" y="12" width="1" height="1" fill="#9720D2"/>
    <rect x="2" y="13" width="1" height="1" fill="#9720D2"/><rect x="3" y="13" width="1" height="1" fill="#9927CF"/>
    <rect x="4" y="12" width="1" height="1" fill="#9927CF"/><rect x="5" y="12" width="1" height="1" fill="#9F32CD"/>
    <rect x="4" y="13" width="1" height="1" fill="#9F32CD"/><rect x="5" y="13" width="1" height="1" fill="#A43DCC"/>
    <rect x="6" y="12" width="1" height="1" fill="#A43DCC"/><rect x="7" y="12" width="1" height="1" fill="#AA49CB"/>
    <rect x="6" y="13" width="1" height="1" fill="#AA49CB"/><rect x="7" y="13" width="1" height="1" fill="#AF54CA"/>
    <rect x="8" y="12" width="1" height="1" fill="#AF54CA"/><rect x="9" y="12" width="1" height="1" fill="#B55FCE"/>
    <rect x="8" y="13" width="1" height="1" fill="#B55FCE"/><rect x="9" y="13" width="1" height="1" fill="#BA6ADA"/>

    <rect x="10" y="2" width="1" height="1" fill="#5D51CD"/><rect x="11" y="2" width="1" height="1" fill="#6454D0"/>
    <rect x="10" y="3" width="1" height="1" fill="#6454D0"/><rect x="11" y="3" width="1" height="1" fill="#6A5ACD"/>
    <rect x="10" y="4" width="1" height="1" fill="#724EC6"/><rect x="11" y="4" width="1" height="1" fill="#7B43BF"/>
    <rect x="10" y="5" width="1" height="1" fill="#7B43BF"/><rect x="11" y="5" width="1" height="1" fill="#8337B8"/>

    <rect x="10" y="8" width="1" height="1" fill="#8A2BE2"/><rect x="11" y="8" width="1" height="1" fill="#8F22DB"/>
    <rect x="10" y="9" width="1" height="1" fill="#8F22DB"/><rect x="11" y="9" width="1" height="1" fill="#9419D4"/>
    <rect x="10" y="10" width="1" height="1" fill="#9720D2"/><rect x="11" y="10" width="1" height="1" fill="#9927CF"/>
    <rect x="10" y="11" width="1" height="1" fill="#9927CF"/><rect x="11" y="11" width="1" height="1" fill="#9F32CD"/>

    <rect x="12" y="3" width="1" height="1" fill="#724EC6"/>
    <rect x="12" y="4" width="1" height="1" fill="#7B43BF"/>
    <rect x="12" y="9" width="1" height="1" fill="#9419D4"/>
    <rect x="12" y="10" width="1" height="1" fill="#9927CF"/>

    <rect x="10" y="6" width="1" height="1" fill="#8A2BE2"/>
    <rect x="10" y="7" width="1" height="1" fill="#8F22DB"/>
    <rect x="10" y="12" width="1" height="1" fill="#BA6ADA"/>
    <rect x="10" y="1" width="1" height="1" fill="#6454D0"/>

    <rect x="9" y="5" width="1" height="1" fill="#7B43BF"/>
    <rect x="9" y="8" width="1" height="1" fill="#8F22DB"/>
    <rect x="9" y="2" width="1" height="1" fill="#6454D0"/>
    <rect x="9" y="11" width="1" height="1" fill="#A43DCC"/>
  </g>
</svg>