<svg xmlns="http://www.w3.org/2000/svg" width="218" height="38" viewBox="0 0 218 38"><defs><linearGradient id="crisp-grad" gradientUnits="userSpaceOnUse" x1="0" y1="0" x2="46000" y2="0" spreadMethod="reflect"><stop offset="0%" stop-color="#FF6B6B"/><stop offset="16%" stop-color="#FFA500"/><stop offset="33%" stop-color="#FFD700"/><stop offset="50%" stop-color="#10B981"/><stop offset="66%" stop-color="#06B6D4"/><stop offset="83%" stop-color="#4F46E5"/><stop offset="100%" stop-color="#A855F7"/><animateTransform attributeName="gradientTransform" type="translate" from="0 0" to="92000 0" dur="60s" repeatCount="indefinite"/></linearGradient></defs><g fill="url(#crisp-grad)" transform="translate(8, 26) scale(0.013672, -0.013672)"><path d="M725 -29Q590 -29 508 25Q459 57 402 137V0H123V1472H407V948Q461 1024 526 1064Q603 1114 722 1114Q937 1114 1058.5 959.0Q1180 804 1180 559Q1180 305 1060.0 138.0Q940 -29 725 -29ZM881 529Q881 645 851 721Q794 865 641 865Q486 865 428 724Q398 649 398 530Q398 390 460.0 298.0Q522 206 649 206Q759 206 820.0 295.0Q881 384 881 529ZM1390 1474H1675V0H1390ZM2886 320Q2875 223 2785 123Q2645 -36 2393 -36Q2185 -36 2026.0 98.0Q1867 232 1867 534Q1867 817 2010.5 968.0Q2154 1119 2383 1119Q2519 1119 2628.0 1068.0Q2737 1017 2808 907Q2872 810 2891 682Q2902 607 2900 466H2154Q2160 302 2257 236Q2316 195 2399 195Q2487 195 2542 245Q2572 272 2595 320ZM2604 654Q2597 767 2535.5 825.5Q2474 884 2383 884Q2284 884 2229.5 822.0Q2175 760 2161 654ZM3605 879Q3460 879 3406 756Q3378 691 3378 590V0H3094V1088H3369V929Q3424 1013 3473 1050Q3561 1116 3696 1116Q3865 1116 3972.5 1027.5Q4080 939 4080 734V0H3788V663Q3788 749 3765 795Q3723 879 3605 879ZM5335 1472V0H5058V151Q4997 54 4919.0 10.0Q4841 -34 4725 -34Q4534 -34 4403.5 120.5Q4273 275 4273 517Q4273 796 4401.5 956.0Q4530 1116 4745 1116Q4844 1116 4921.0 1072.5Q4998 1029 5046 952V1472ZM4567 538Q4567 387 4627 297Q4686 206 4807 206Q4928 206 4991.0 296.0Q5054 386 5054 529Q5054 729 4953 815Q4891 867 4809 867Q4684 867 4625.5 772.5Q4567 678 4567 538ZM6507 973Q6639 832 6639 559Q6639 271 6509.5 120.0Q6380 -31 6176 -31Q6046 -31 5960 34Q5913 70 5868 139V-429H5586V1090H5859V929Q5905 1000 5957 1041Q6052 1114 6183 1114Q6374 1114 6507 973ZM6345 545Q6345 671 6287.5 768.0Q6230 865 6101 865Q5946 865 5888 718Q5858 640 5858 520Q5858 330 5959 253Q6019 208 6101 208Q6220 208 6282.5 300.0Q6345 392 6345 545ZM7138 1090V0H6849V1090ZM7138 1483V1220H6849V1483ZM8385 0H8030L7842 327L7653 0H7307L7679 552L7323 1088H7672L7854 772L8032 1088H8371L8013 557ZM9486 320Q9475 223 9385 123Q9245 -36 8993 -36Q8785 -36 8626.0 98.0Q8467 232 8467 534Q8467 817 8610.5 968.0Q8754 1119 8983 1119Q9119 1119 9228.0 1068.0Q9337 1017 9408 907Q9472 810 9491 682Q9502 607 9500 466H8754Q8760 302 8857 236Q8916 195 8999 195Q9087 195 9142 245Q9172 272 9195 320ZM9204 654Q9197 767 9135.5 825.5Q9074 884 8983 884Q8884 884 8829.5 822.0Q8775 760 8761 654ZM9698 1474H9983V0H9698ZM10256 298H10559V0H10256ZM11773 699H11481Q11473 760 11440 809Q11392 875 11291 875Q11147 875 11094 732Q11066 656 11066 530Q11066 410 11094 337Q11145 201 11286 201Q11386 201 11428.0 255.0Q11470 309 11479 395H11770Q11760 265 11676 149Q11542 -38 11279 -38Q11016 -38 10892.0 118.0Q10768 274 10768 523Q10768 804 10905.0 960.0Q11042 1116 11283 1116Q11488 1116 11618.5 1024.0Q11749 932 11773 699ZM12878 952Q13016 779 13016 543Q13016 303 12878.0 132.5Q12740 -38 12459 -38Q12178 -38 12040.0 132.5Q11902 303 11902 543Q11902 779 12040.0 952.0Q12178 1125 12459 1125Q12740 1125 12878 952ZM12458 884Q12333 884 12265.5 795.5Q12198 707 12198 543Q12198 379 12265.5 290.0Q12333 201 12458 201Q12583 201 12650.0 290.0Q12717 379 12717 543Q12717 707 12650.0 795.5Q12583 884 12458 884ZM13832 790Q13796 869 13691 869Q13569 869 13527 790Q13504 745 13504 656V0H13215V1088H13492V929Q13545 1014 13592 1050Q13675 1114 13807 1114Q13932 1114 14009 1059Q14071 1008 14103 928Q14159 1024 14242 1069Q14330 1114 14438 1114Q14510 1114 14580.0 1086.0Q14650 1058 14707 988Q14753 931 14769 848Q14779 793 14779 687L14777 0H14485V694Q14485 756 14465 796Q14427 872 14325 872Q14207 872 14162 774Q14139 722 14139 649V0H13852V649Q13852 746 13832 790Z"/></g></svg>
