<svg xmlns="http://www.w3.org/2000/svg" width="79" height="22" viewBox="0 0 79 22"><defs><linearGradient id="crisp-grad" gradientUnits="userSpaceOnUse" x1="0" y1="0" x2="8876" y2="0"><stop offset="0%" stop-color="#0A78E8"/><stop offset="50%" stop-color="#0071E3"/><stop offset="100%" stop-color="#006ADD"/></linearGradient></defs><g fill="url(#crisp-grad)" transform="translate(6, 15) scale(0.007812, -0.007812)"><path d="M156 1474H464V265H1194V0H156ZM1383 1474H1689V0H1383ZM3016 110Q2851 -41 2594 -41Q2276 -41 2094 163Q1912 368 1912 725Q1912 1111 2119 1320Q2299 1502 2577 1502Q2949 1502 3121 1258Q3216 1121 3223 983H2915Q2885 1089 2838 1143Q2754 1239 2589 1239Q2421 1239 2324.0 1103.5Q2227 968 2227 720Q2227 472 2329.5 348.5Q2432 225 2590 225Q2752 225 2837 331Q2884 388 2915 502H3220Q3180 261 3016 110ZM4481 644H3765V265H4581V0H3464V1474H4545V1213H3765V900H4481ZM6013 0H5705L5103 1047V0H4816V1474H5139L5726 445V1474H6013ZM6835 213Q6944 213 7012 237Q7141 283 7141 408Q7141 481 7077 521Q7013 560 6876 590L6720 625Q6490 677 6402 738Q6253 840 6253 1057Q6253 1255 6397.0 1386.0Q6541 1517 6820 1517Q7053 1517 7217.5 1393.5Q7382 1270 7390 1035H7094Q7086 1168 6978 1224Q6906 1261 6799 1261Q6680 1261 6609.0 1213.0Q6538 1165 6538 1079Q6538 1000 6608 961Q6653 935 6800 900L7054 839Q7221 799 7306 732Q7438 628 7438 431Q7438 229 7283.5 95.5Q7129 -38 6847 -38Q6559 -38 6394.0 93.5Q6229 225 6229 455H6523Q6537 354 6578 304Q6653 213 6835 213ZM8692 644H7976V265H8792V0H7675V1474H8756V1213H7976V900H8692Z"/></g></svg>
