<svg xmlns="http://www.w3.org/2000/svg" width="166" height="22" viewBox="0 0 166 22"><defs><linearGradient id="crisp-grad" gradientUnits="userSpaceOnUse" x1="0" y1="0" x2="19914" y2="0"><stop offset="0%" stop-color="#0A78E8"/><stop offset="50%" stop-color="#0071E3"/><stop offset="100%" stop-color="#006ADD"/></linearGradient></defs><g fill="url(#crisp-grad)" transform="translate(6, 15) scale(0.007812, -0.007812)"><path d="M1118 640V0H827V663Q827 751 797 805Q758 881 649 881Q536 881 477.5 805.5Q419 730 419 590V0H135V1469H419V948Q481 1043 562.5 1080.5Q644 1118 734 1118Q835 1118 917.5 1083.0Q1000 1048 1053 976Q1098 915 1108.0 850.5Q1118 786 1118 640ZM1883 203V-10L1748 -15Q1546 -22 1472 55Q1424 104 1424 206V877H1272V1080H1424V1384H1706V1080H1883V877H1706V301Q1706 234 1723.0 217.5Q1740 201 1827 201Q1840 201 1854.5 201.5Q1869 202 1883 203ZM2565 203V-10L2430 -15Q2228 -22 2154 55Q2106 104 2106 206V877H1954V1080H2106V1384H2388V1080H2565V877H2388V301Q2388 234 2405.0 217.5Q2422 201 2509 201Q2522 201 2536.5 201.5Q2551 202 2565 203ZM3661 973Q3793 832 3793 559Q3793 271 3663.5 120.0Q3534 -31 3330 -31Q3200 -31 3114 34Q3067 70 3022 139V-429H2740V1090H3013V929Q3059 1000 3111 1041Q3206 1114 3337 1114Q3528 1114 3661 973ZM3499 545Q3499 671 3441.5 768.0Q3384 865 3255 865Q3100 865 3042 718Q3012 640 3012 520Q3012 330 3113 253Q3173 208 3255 208Q3374 208 3436.5 300.0Q3499 392 3499 545ZM4401 298V0H4098V298ZM4098 749V1047H4401V749ZM4436 0 5007 1519H5244L4671 0ZM5005 0 5576 1519H5813L5240 0ZM5825 1474H6110V0H5825ZM7297 952Q7435 779 7435 543Q7435 303 7297.0 132.5Q7159 -38 6878 -38Q6597 -38 6459.0 132.5Q6321 303 6321 543Q6321 779 6459.0 952.0Q6597 1125 6878 1125Q7159 1125 7297 952ZM6877 884Q6752 884 6684.5 795.5Q6617 707 6617 543Q6617 379 6684.5 290.0Q6752 201 6877 201Q7002 201 7069.0 290.0Q7136 379 7136 543Q7136 707 7069.0 795.5Q7002 884 6877 884ZM8582 699H8290Q8282 760 8249 809Q8201 875 8100 875Q7956 875 7903 732Q7875 656 7875 530Q7875 410 7903 337Q7954 201 8095 201Q8195 201 8237.0 255.0Q8279 309 8288 395H8579Q8569 265 8485 149Q8351 -38 8088 -38Q7825 -38 7701.0 118.0Q7577 274 7577 523Q7577 804 7714.0 960.0Q7851 1116 8092 1116Q8297 1116 8427.5 1024.0Q8558 932 8582 699ZM8819 972Q8932 1116 9207 1116Q9386 1116 9525 1045Q9664 974 9664 777V277Q9664 225 9666 151Q9669 95 9683.0 75.0Q9697 55 9725 42V0H9415Q9402 33 9397.0 62.0Q9392 91 9389 128Q9330 64 9253 19Q9161 -34 9045 -34Q8897 -34 8800.5 50.5Q8704 135 8704 290Q8704 491 8859 581Q8944 630 9109 651L9206 663Q9285 673 9319 688Q9380 714 9380 769Q9380 836 9333.5 861.5Q9287 887 9197 887Q9096 887 9054 837Q9024 800 9014 737H8739Q8748 880 8819 972ZM9031 206Q9071 173 9129 173Q9221 173 9298.5 227.0Q9376 281 9379 424V530Q9352 513 9324.5 502.5Q9297 492 9249 483L9185 471Q9095 455 9056 432Q8990 393 8990 311Q8990 238 9031 206ZM9923 1474H10208V0H9923ZM11471 640V0H11180V663Q11180 751 11150 805Q11111 881 11002 881Q10889 881 10830.5 805.5Q10772 730 10772 590V0H10488V1469H10772V948Q10834 1043 10915.5 1080.5Q10997 1118 11087 1118Q11188 1118 11270.5 1083.0Q11353 1048 11406 976Q11451 915 11461.0 850.5Q11471 786 11471 640ZM12646 952Q12784 779 12784 543Q12784 303 12646.0 132.5Q12508 -38 12227 -38Q11946 -38 11808.0 132.5Q11670 303 11670 543Q11670 779 11808.0 952.0Q11946 1125 12227 1125Q12508 1125 12646 952ZM12226 884Q12101 884 12033.5 795.5Q11966 707 11966 543Q11966 379 12033.5 290.0Q12101 201 12226 201Q12351 201 12418.0 290.0Q12485 379 12485 543Q12485 707 12418.0 795.5Q12351 884 12226 884ZM13739 1040Q13867 958 13886 758H13601Q13595 813 13570 845Q13523 903 13410 903Q13317 903 13277.5 874.0Q13238 845 13238 806Q13238 757 13280 735Q13322 712 13577 656Q13747 616 13832 535Q13916 453 13916 330Q13916 168 13795.5 65.5Q13675 -37 13423 -37Q13166 -37 13043.5 71.5Q12921 180 12921 348H13210Q13219 272 13249 240Q13302 183 13445 183Q13529 183 13578.5 208.0Q13628 233 13628 283Q13628 331 13588 356Q13548 381 13291 442Q13106 488 13030 557Q12954 625 12954 753Q12954 904 13072.5 1012.5Q13191 1121 13406 1121Q13610 1121 13739 1040ZM14626 203V-10L14491 -15Q14289 -22 14215 55Q14167 104 14167 206V877H14015V1080H14167V1384H14449V1080H14626V877H14449V301Q14449 234 14466.0 217.5Q14483 201 14570 201Q14583 201 14597.5 201.5Q14612 202 14626 203ZM15211 298V0H14908V298ZM14908 749V1047H15211V749ZM15904 720Q15852 720 15814 707Q15747 683 15713 618L15457 630L15559 1431H16358V1189H15765L15713 872Q15779 915 15816 929Q15878 952 15967 952Q16147 952 16281.0 831.0Q16415 710 16415 479Q16415 278 16286.0 120.0Q16157 -38 15900 -38Q15693 -38 15560.0 73.0Q15427 184 15412 388H15696Q15713 295 15761.0 244.5Q15809 194 15901 194Q16007 194 16062.5 268.5Q16118 343 16118 456Q16118 567 16066.0 643.5Q16014 720 15904 720ZM17272 0H16980V1000H16639V1194Q16774 1200 16828 1212Q16914 1231 16968 1288Q17005 1327 17024 1392Q17035 1431 17035 1450H17272ZM18538 984Q18424 822 18347 650Q18286 515 18237.0 320.0Q18188 125 18188 0H17892Q17905 390 18148 811Q18305 1072 18411 1175H17688L17692 1431H18716V1208Q18652 1145 18538 984ZM19167 1161Q19119 1097 19121 990H18855Q18859 1098 18892 1195Q18927 1280 19002 1352Q19058 1403 19135.0 1430.0Q19212 1457 19324 1457Q19532 1457 19659.5 1349.5Q19787 1242 19787 1061Q19787 933 19711 845Q19663 790 19611 770Q19650 770 19723 703Q19832 602 19832 427Q19832 243 19704.5 103.5Q19577 -36 19327 -36Q19019 -36 18899 165Q18836 272 18829 445H19109Q19109 358 19137 301Q19189 196 19326 196Q19410 196 19472.5 253.5Q19535 311 19535 419Q19535 562 19419 610Q19353 637 19211 637V841Q19350 843 19405 868Q19500 910 19500 1038Q19500 1121 19451.5 1173.0Q19403 1225 19315 1225Q19214 1225 19167 1161Z"/></g></svg>
