<svg xmlns="http://www.w3.org/2000/svg" width="68" height="22" viewBox="0 0 68 22"><defs><linearGradient id="crisp-grad" gradientUnits="userSpaceOnUse" x1="0" y1="0" x2="7397" y2="0"><stop offset="0%" stop-color="#0A78E8"/><stop offset="50%" stop-color="#0071E3"/><stop offset="100%" stop-color="#006ADD"/></linearGradient></defs><g fill="url(#crisp-grad)" transform="translate(6, 15) scale(0.007812, -0.007812)"><path d="M1348 0H1040L438 1047V0H151V1474H474L1061 445V1474H1348ZM2521 952Q2659 779 2659 543Q2659 303 2521.0 132.5Q2383 -38 2102 -38Q1821 -38 1683.0 132.5Q1545 303 1545 543Q1545 779 1683.0 952.0Q1821 1125 2102 1125Q2383 1125 2521 952ZM2101 884Q1976 884 1908.5 795.5Q1841 707 1841 543Q1841 379 1908.5 290.0Q1976 201 2101 201Q2226 201 2293.0 290.0Q2360 379 2360 543Q2360 707 2293.0 795.5Q2226 884 2101 884ZM3855 1472V0H3578V151Q3517 54 3439.0 10.0Q3361 -34 3245 -34Q3054 -34 2923.5 120.5Q2793 275 2793 517Q2793 796 2921.5 956.0Q3050 1116 3265 1116Q3364 1116 3441.0 1072.5Q3518 1029 3566 952V1472ZM3087 538Q3087 387 3147 297Q3206 206 3327 206Q3448 206 3511.0 296.0Q3574 386 3574 529Q3574 729 3473 815Q3411 867 3329 867Q3204 867 3145.5 772.5Q3087 678 3087 538ZM5047 320Q5036 223 4946 123Q4806 -36 4554 -36Q4346 -36 4187.0 98.0Q4028 232 4028 534Q4028 817 4171.5 968.0Q4315 1119 4544 1119Q4680 1119 4789.0 1068.0Q4898 1017 4969 907Q5033 810 5052 682Q5063 607 5061 466H4315Q4321 302 4418 236Q4477 195 4560 195Q4648 195 4703 245Q4733 272 4756 320ZM4765 654Q4758 767 4696.5 825.5Q4635 884 4544 884Q4445 884 4390.5 822.0Q4336 760 4322 654ZM5248 298H5551V0H5248ZM5835 1085H6120V-117Q6120 -282 6055.0 -361.0Q5990 -440 5800 -440Q5787 -440 5761.5 -439.0Q5736 -438 5698 -437V-209Q5722 -211 5732.0 -211.5Q5742 -212 5750 -212Q5792 -212 5813.5 -191.5Q5835 -171 5835 -112ZM5835 1483H6120V1220H5835ZM7142 1040Q7270 958 7289 758H7004Q6998 813 6973 845Q6926 903 6813 903Q6720 903 6680.5 874.0Q6641 845 6641 806Q6641 757 6683 735Q6725 712 6980 656Q7150 616 7235 535Q7319 453 7319 330Q7319 168 7198.5 65.5Q7078 -37 6826 -37Q6569 -37 6446.5 71.5Q6324 180 6324 348H6613Q6622 272 6652 240Q6705 183 6848 183Q6932 183 6981.5 208.0Q7031 233 7031 283Q7031 331 6991 356Q6951 381 6694 442Q6509 488 6433 557Q6357 625 6357 753Q6357 904 6475.5 1012.5Q6594 1121 6809 1121Q7013 1121 7142 1040Z"/></g></svg>
